<svg xmlns="http://www.w3.org/2000/svg" viewBox="0 0 38.95 46.57"><defs><style>.cls-1{fill:#fff;}</style></defs><g id="Calque_2" data-name="Calque 2"><g id="Calque_1-2" data-name="Calque 1"><circle class="cls-1" cx="33.91" cy="39.58" r="2.89"/><circle class="cls-1" cx="36.94" cy="45.07" r="1.5"/><path class="cls-1" d="M27,22a22.44,22.44,0,0,1-2.84,1.36,20.7,20.7,0,0,1,6.13,5.23A23.38,23.38,0,0,1,31.94,31a4,4,0,0,1-5.27,5.6l-.14-.07a22.06,22.06,0,0,0-9.72-3A15.76,15.76,0,0,0,1.4,43.91.72.72,0,0,1,0,43.66,20.62,20.62,0,0,1,1.93,35a24.71,24.71,0,0,1,8.64-9.89,20.08,20.08,0,0,1,3.56-1.93,19.76,19.76,0,0,1-6.52-6.16A44.39,44.39,0,0,1,.23,1.2a.49.49,0,0,0,0-.11L.15,1A.7.7,0,0,1,1.31.23,64.31,64.31,0,0,0,11.93,9.49a22.28,22.28,0,0,0,9.46,3.76,16,16,0,0,0,11.34-3.12,15.8,15.8,0,0,0,4.87-6.2A.71.71,0,0,1,39,4.28a20.66,20.66,0,0,1-2.61,8.58A24.54,24.54,0,0,1,27,22Z"/></g></g></svg>