<svg xmlns="http://www.w3.org/2000/svg" xmlns:xlink="http://www.w3.org/1999/xlink" viewBox="0 0 85.53 49.25"><defs><style>.cls-1{fill:#fff;stroke:#1d1d1b;stroke-miterlimit:10;stroke-width:0.5px;}.cls-2{fill:url(#Dégradé_sans_nom_7);}.cls-3{fill:url(#Dégradé_sans_nom_7-2);}.cls-4{fill:#662483;opacity:0.56;}.cls-5{fill:#be1622;}.cls-6{fill:#cbc9e6;}.cls-7{fill:#312783;}.cls-8{fill:#23234c;}.cls-9{fill:url(#Dégradé_sans_nom_7-3);}.cls-10{fill:url(#Dégradé_sans_nom_7-4);}.cls-11{fill:url(#Dégradé_sans_nom_7-5);}.cls-12{fill:url(#Dégradé_sans_nom_7-6);}.cls-13{fill:url(#Dégradé_sans_nom_7-7);}</style><linearGradient id="Dégradé_sans_nom_7" y1="24.63" x2="85.53" y2="24.63" gradientUnits="userSpaceOnUse"><stop offset="0" stop-color="#c2add4"/><stop offset="1" stop-color="#8366aa"/></linearGradient><linearGradient id="Dégradé_sans_nom_7-2" x1="58.87" y1="25.1" x2="60.22" y2="25.1" xlink:href="#Dégradé_sans_nom_7"/><linearGradient id="Dégradé_sans_nom_7-3" x1="56.14" y1="20.37" x2="60.35" y2="20.37" xlink:href="#Dégradé_sans_nom_7"/><linearGradient id="Dégradé_sans_nom_7-4" x1="-4.36" y1="29.64" x2="-0.92" y2="29.64" gradientTransform="matrix(0.74, -0.12, 0.11, 0.67, 53.54, -0.01)" xlink:href="#Dégradé_sans_nom_7"/><linearGradient id="Dégradé_sans_nom_7-5" x1="-6.89" y1="26.83" x2="-3.49" y2="26.83" gradientTransform="matrix(0.74, -0.12, 0.11, 0.67, 53.54, -0.01)" xlink:href="#Dégradé_sans_nom_7"/><linearGradient id="Dégradé_sans_nom_7-6" x1="-3.25" y1="58.75" x2="-2.02" y2="58.75" gradientTransform="matrix(0, 0.54, -0.97, 0, 116.12, 26.55)" xlink:href="#Dégradé_sans_nom_7"/><linearGradient id="Dégradé_sans_nom_7-7" x1="2.1" y1="56.6" x2="3.33" y2="56.6" gradientTransform="matrix(0, 0.54, -0.97, 0, 117.35, 22.34)" xlink:href="#Dégradé_sans_nom_7"/></defs><g id="Calque_2" data-name="Calque 2"><g id="Calque_2-2" data-name="Calque 2"><polygon class="cls-1" points="67.94 18.43 71.54 16.53 72.19 17.96 67.94 18.43"/><polygon class="cls-1" points="61.55 15.27 61.17 11.21 62.74 11.16 61.55 15.27"/><polygon class="cls-1" points="64.76 16.5 66.79 12.96 68.1 13.83 64.76 16.5"/><path class="cls-2" d="M83.41,41.1A13,13,0,0,0,84.82,32a13.37,13.37,0,0,0-4.23-7.15,4.87,4.87,0,0,0,.29-1.49,12.19,12.19,0,0,0-.13-4.18A13.45,13.45,0,0,0,78.28,14,17.42,17.42,0,0,0,62.1,7.54C58.57,1.81,51.22-.83,44.45.23a17.37,17.37,0,0,0-7,2.73,18.39,18.39,0,0,0-6.1-.06c-5.52.88-10.43,4.15-12.45,8.94-.58.06-1.15.12-1.73.21C9.69,13.27,4.56,18.75,4,24.85a11.79,11.79,0,0,0,.13,3.24,12,12,0,0,0,1.15,3.49s0,0,0,.06,0,0,0,.06,0,.06-.07.06a7.54,7.54,0,0,0-.86.57c-.1.06-.17.13-.26.19l-.1.09a1.42,1.42,0,0,0-.22.18l-.39.33a10.49,10.49,0,0,0-2.28,3.09.25.25,0,0,0-.06.13s0,0,0,.06,0,.09-.07.12A10.46,10.46,0,0,0,3.53,48.77l81.94.48A12.47,12.47,0,0,0,83.41,41.1ZM36.43,33h-.17v0h.17Z"/><ellipse class="cls-3" cx="59.55" cy="25.1" rx="0.67" ry="0.75"/></g><g id="Calque_6" data-name="Calque 6"><polygon class="cls-4" points="52.45 32.55 52.45 32.8 52.24 32.8 52.45 32.55"/><path class="cls-4" d="M58.21,26.47,21.82,23.53l-1.46,1.15,0,.07.31.57-.35.35-.65.67-2.05.06-2,1.47.11.09,1.18.87-1.05.92-.24.22-2.17-.25S11.8,31,11.62,31.06l-.23,3.5,14.33,1.6L25.85,49h4.22l.12-12.33.26,0,7.77.87.12,11.49h4.31l.14-11,.26,0,4.91.55,2.69-2.88V33.85l2.36.06h.1l.21-.26L54.64,32v-.58l2,.07V30.24l0,1.33,1.64-2ZM25.92,32.33l.21.18-.21,0Zm4.57.6-.29,0,.29-.45Zm7.7,1.18h.16v0h-.16Zm10.06-2.86.1-.1.22.11ZM53.35,30l-.12.11V30l.09-.07h0Z"/><polygon class="cls-4" points="59.84 32.98 58.65 33.16 58.56 33.19 59.15 31.57 59.4 32.09 59.84 32.98"/><polygon class="cls-4" points="64.69 32.01 64.38 32.09 64.31 32.1 64.66 31.32 64.69 32.01"/><polygon class="cls-4" points="71.12 43.85 71.12 43.87 70.93 43.73 70.94 43.73 71.12 43.85"/><path class="cls-5" d="M9.31,9.64h0Z"/><polygon class="cls-4" points="71.12 43.85 71.12 43.87 70.93 43.73 70.94 43.73 71.12 43.85"/><path class="cls-4" d="M78.82,38.79C72.7,34.71,67.6,31.25,67.6,31.25l-1.79.19,0,.69-.31.08-.07,0-.95.23-1.81-1-2.4.19.25.52.44.89-1.19.19-.09,0-.37.06L57.57,32.1s-1.93.19-2.21.14l0,0-1.79,2.7L71.39,47.61l0-.1,7.18-6.31.24-2.41ZM71,43.87l-.19-.13h0l.18.13Z"/><polygon class="cls-4" points="71.12 43.85 71.12 43.87 70.93 43.73 70.94 43.73 71.12 43.85"/><polygon class="cls-4" points="52.24 32.8 52.13 32.92 52.14 32.8 52.24 32.8"/><path class="cls-4" d="M62.4,20.55l-.7-2.17L57.09,16.1l-1.37.23-1.23-.41-3.39.7h0v0l0,1.74,1.25,1.11-.06,1.25,1.06,1.07v0l1.1-.45L56.28,23l-.14,1.23,1.13,1.2h0l1.14-.47v-.07L60,26.28h0l1.45-.59.37-.15L65,24.24l.23-1.58Zm-4.68,1.58h0Zm2.66,1.81a7.56,7.56,0,0,0,1.26,1.42c.08.13.1-1.87.24-1.82C61.84,23.57,60.43,24,60.38,23.94Z"/><polygon class="cls-6" points="47.46 28.78 42.95 32.7 50.96 32.92 51.33 29.3 47.46 28.78"/><polygon class="cls-6" points="13.76 27.43 13.94 29.71 22.29 29.95 18.86 27.49 13.76 27.43"/><polygon class="cls-6" points="18.28 24.5 18.45 26.78 26.81 27.02 23.38 24.56 18.28 24.5"/><polygon class="cls-6" points="50.77 26.58 46.26 30.51 54.62 30.74 54.64 27.11 50.77 26.58"/><polygon class="cls-7" points="41.07 32.94 40.88 49.13 38.79 49.14 38.61 36.1 41.07 32.94"/><polygon class="cls-8" points="38.79 33.05 38.79 49.13 36.57 49.13 36.38 31.3 38.79 33.05"/><polygon class="cls-7" points="52.47 19.74 52.66 21.51 51.52 21.98 51.46 19.49 52.47 19.74"/><polygon class="cls-6" points="51.57 20.04 51.51 21.96 50.45 20.89 50.53 19.28 51.57 20.04"/><polygon class="cls-7" points="56.35 23.31 56.54 25.08 55.4 25.55 55.34 23.06 56.35 23.31"/><polygon class="cls-6" points="55.5 23.5 55.4 25.54 54.27 24.34 54.45 22.74 55.5 23.5"/><polygon class="cls-8" points="26.3 33.23 26.2 49.06 24.08 49.05 23.9 31.47 26.3 33.23"/><polygon class="cls-7" points="28.47 31.59 28.3 49.07 26.18 49.08 26.01 35.04 28.47 31.59"/><path class="cls-8" d="M9.6,30.3c.18-.06,1.88-1.23,1.88-1.23l2.17.23,1.29-1.05-1.29-.88,2-1.35L17.69,26l1-.93-.35-.59,1.46-1.06,36.39,2.7-1.63,1.1-3.47-.28-1,.7,2.46.77L51,29.54,47.34,29l-1.46,1.17,2.75,1.23-2.46,2.23Z"/><polygon class="cls-6" points="9.6 30.3 9.37 33.52 45.94 37.27 46.17 33.64 9.6 30.3"/><polygon class="cls-7" points="58 31.69 57.09 34.19 64.24 38.51 62.47 34.68 58 31.69"/><polygon class="cls-7" points="63.51 31.44 62.45 33.82 69.6 38.14 67.83 34.31 63.51 31.44"/><path class="cls-8" d="M76.52,38.79l-6.48,5L70,44,53,32.24c.17.06,2.23-.13,2.23-.13L57,33.37l.46-.08,1.19-.19-.44-.88L58,31.69l2.4-.19,1.81,1,1-.25.31-.09,0-.68,1.79-.2S70.4,34.71,76.52,38.79Z"/><path class="cls-5" d="M81.44,40.41h0Z"/><polygon class="cls-8" points="56.55 17.35 51.86 19.11 49.2 16.78 52.62 16.06 56.55 17.35"/><polygon class="cls-6" points="69.97 43.98 69.09 47.62 51.24 34.92 53.03 32.22 69.97 43.98"/><polygon class="cls-6" points="56.39 19.54 55.81 22.44 50.91 18.25 52.24 16.79 56.39 19.54"/><polygon class="cls-6" points="58.65 24.56 58.13 26.43 49.26 18.53 49.22 16.76 58.65 24.56"/><polygon class="cls-7" points="48.63 31.41 48.63 34.64 45.94 37.27 46.17 33.64 48.63 31.41"/><polygon class="cls-7" points="76.53 38.8 76.29 41.2 69.09 47.53 69.79 43.84 76.53 38.8"/><polygon class="cls-7" points="52.56 28.37 52.62 31.18 50.95 32.95 51.03 29.54 52.56 28.37"/><polygon class="cls-7" points="56.19 26.08 56.25 28.89 54.61 30.77 54.55 27.19 56.19 26.08"/><polygon class="cls-7" points="63.11 24.38 58.13 26.44 58.64 24.55 63.34 22.8 63.11 24.38"/><polygon class="cls-7" points="60.53 20.69 55.84 22.27 56.39 19.51 59.83 18.52 60.53 20.69"/><polygon class="cls-9" points="60.35 20.54 56.14 21.96 56.7 19.71 59.69 18.78 60.35 20.54"/><polygon class="cls-10" points="55.52 22.03 53.45 20.24 53.99 18.36 55.95 19.67 55.52 22.03"/><polygon class="cls-11" points="53.27 20.02 51.23 18.31 52.24 17.13 53.78 18.23 53.27 20.02"/><polygon class="cls-8" points="63.34 22.8 58.65 24.56 55.84 22.27 60.49 20.67 63.34 22.8"/><path class="cls-4" d="M61.38,18.08c0-.14-.19-7.25-.19-7.25l2.32,0Z"/><polygon class="cls-8" points="59.83 18.52 56.39 19.55 52.18 16.74 55.22 16.24 59.83 18.52"/><path class="cls-6" d="M61,16.67c0-.11-.79-6.09-.79-6.09l2.31-.15Z"/><path class="cls-4" d="M66.07,19.14c.12-.05,6.24-3.31,6.24-3.31l1.18,2.85Z"/><path class="cls-4" d="M63.79,18.09c.08-.09,3.8-5.52,3.8-5.52L69.43,14Z"/><path class="cls-6" d="M63.46,17.68c.06-.1,2.8-5.47,2.8-5.47l2,1.19Z"/><path class="cls-6" d="M66,18.34c.1-.05,5.2-3.27,5.2-3.27l1.1,2Z"/><ellipse class="cls-12" cx="59.35" cy="25.12" rx="0.72" ry="0.33" transform="translate(20.7 76.7) rotate(-76.09)"/><ellipse class="cls-13" cx="62.66" cy="23.81" rx="0.72" ry="0.33" transform="translate(24.5 78.91) rotate(-76.09)"/><polygon class="cls-6" points="26.9 28.12 21.16 27.55 23.2 26.14 28.56 26.59 26.9 28.12"/><polygon class="cls-6" points="35.46 29.14 29.71 28.57 31.25 26.98 37.12 27.61 35.46 29.14"/><polygon class="cls-6" points="44.71 29.98 38.97 29.34 40.5 27.74 46.37 28.38 44.71 29.98"/><polygon class="cls-6" points="68.65 38.98 63.58 35.24 65.69 34.59 70.52 37.99 68.65 38.98"/><polygon class="cls-7" points="55.09 24.61 54.7 24.2 54.76 23.66 55.14 24 55.09 24.61"/><polygon class="cls-7" points="51.14 21.16 50.75 20.75 50.81 20.21 51.19 20.55 51.14 21.16"/></g></g></svg>