<svg xmlns="http://www.w3.org/2000/svg" xmlns:xlink="http://www.w3.org/1999/xlink" viewBox="0 0 142.06 73.72"><defs><style>.cls-1,.cls-3{fill:#fff;}.cls-2{fill:#9e86bd;}.cls-3{stroke:#1d1d1b;stroke-miterlimit:10;stroke-width:0.5px;}.cls-4{fill:url(#Dégradé_sans_nom_7);}.cls-5{fill:url(#Dégradé_sans_nom_7-2);}.cls-6{fill:#662483;opacity:0.56;}.cls-7{fill:#be1622;}.cls-8{fill:#cbc9e6;}.cls-9{fill:#312783;}.cls-10{fill:#23234c;}.cls-11{fill:url(#Dégradé_sans_nom_7-3);}.cls-12{fill:url(#Dégradé_sans_nom_7-4);}.cls-13{fill:url(#Dégradé_sans_nom_7-5);}.cls-14{fill:url(#Dégradé_sans_nom_7-6);}.cls-15{fill:url(#Dégradé_sans_nom_7-7);}</style><linearGradient id="Dégradé_sans_nom_7" x1="25.8" y1="24.63" x2="111.33" y2="24.63" gradientUnits="userSpaceOnUse"><stop offset="0" stop-color="#c2add4"/><stop offset="1" stop-color="#8366aa"/></linearGradient><linearGradient id="Dégradé_sans_nom_7-2" x1="83.35" y1="25.1" x2="84.7" y2="25.1" xlink:href="#Dégradé_sans_nom_7"/><linearGradient id="Dégradé_sans_nom_7-3" x1="80.61" y1="20.37" x2="84.83" y2="20.37" xlink:href="#Dégradé_sans_nom_7"/><linearGradient id="Dégradé_sans_nom_7-4" x1="40.26" y1="105.24" x2="43.7" y2="105.24" gradientTransform="matrix(0.74, -0.12, 0.11, 0.67, 37.14, -45.58)" xlink:href="#Dégradé_sans_nom_7"/><linearGradient id="Dégradé_sans_nom_7-5" x1="37.73" y1="102.42" x2="41.13" y2="102.42" gradientTransform="matrix(0.74, -0.12, 0.11, 0.67, 37.14, -45.58)" xlink:href="#Dégradé_sans_nom_7"/><linearGradient id="Dégradé_sans_nom_7-6" x1="167.18" y1="28.21" x2="168.41" y2="28.21" gradientTransform="matrix(0, 0.54, -0.97, 0, 112.4, -65.83)" xlink:href="#Dégradé_sans_nom_7"/><linearGradient id="Dégradé_sans_nom_7-7" x1="172.53" y1="26.06" x2="173.76" y2="26.06" gradientTransform="matrix(0, 0.54, -0.97, 0, 113.64, -70.04)" xlink:href="#Dégradé_sans_nom_7"/></defs><g id="Calque_2" data-name="Calque 2"><g id="Calque_1-2" data-name="Calque 1"><path class="cls-1" d="M3.6,69.54,5.93,57.8H1.32l.54-2.73H14.47l-.56,2.73H9.3L7,69.54Z" transform="translate(-1.32)"/><path class="cls-1" d="M21.87,58.25a4.68,4.68,0,0,1,2.39.59,3.15,3.15,0,0,1,1.41,1.73,5.21,5.21,0,0,1,.09,2.81l-1.24,6.16H21.29l1.18-6a2.37,2.37,0,0,0-.18-1.88A1.78,1.78,0,0,0,20.67,61a3,3,0,0,0-2,.71,3.81,3.81,0,0,0-1.12,2.17l-1.12,5.62H13.17L16.23,54.2h3.22L18,61.54l-.65-.91a5.12,5.12,0,0,1,2-1.8A5.79,5.79,0,0,1,21.87,58.25Z" transform="translate(-1.32)"/><path class="cls-1" d="M33.34,69.71a6.68,6.68,0,0,1-3-.63,4.68,4.68,0,0,1-2-1.73,4.83,4.83,0,0,1-.7-2.63,6.49,6.49,0,0,1,.84-3.31,6.1,6.1,0,0,1,2.31-2.31,6.78,6.78,0,0,1,3.4-.85,6.17,6.17,0,0,1,2.82.61,4.42,4.42,0,0,1,1.84,1.71,4.9,4.9,0,0,1,.66,2.58,6.38,6.38,0,0,1-.07.87c0,.29-.09.57-.14.83h-9.2L30.47,63h7.34l-1.34.57a2.57,2.57,0,0,0-.1-1.56,2,2,0,0,0-.87-1,2.88,2.88,0,0,0-1.43-.34,3.07,3.07,0,0,0-1.79.51,3.22,3.22,0,0,0-1.12,1.39,5.21,5.21,0,0,0-.38,2,2.41,2.41,0,0,0,.71,1.89,3.24,3.24,0,0,0,2.18.63,5,5,0,0,0,1.64-.27,4,4,0,0,0,1.34-.74L38,68.22a6.5,6.5,0,0,1-2.19,1.12A8.59,8.59,0,0,1,33.34,69.71Z" transform="translate(-1.32)"/><path class="cls-2" d="M44.49,66.85h7.87l-.51,2.69H40.62l2.9-14.47H54.43l-.52,2.69h-7.6Zm.95-6h7l-.51,2.62h-7Z" transform="translate(-1.32)"/><path class="cls-2" d="M63,58.25a4.67,4.67,0,0,1,2.4.59,3.18,3.18,0,0,1,1.4,1.73,5.21,5.21,0,0,1,.09,2.81l-1.25,6.16H62.41l1.18-6a2.37,2.37,0,0,0-.18-1.88A1.78,1.78,0,0,0,61.79,61a3,3,0,0,0-2,.71,3.8,3.8,0,0,0-1.11,2.17l-1.12,5.62H54.29l2.19-11.12h3.08l-.62,3.14-.48-.93a5.05,5.05,0,0,1,2-1.8A5.76,5.76,0,0,1,63,58.25Z" transform="translate(-1.32)"/><path class="cls-2" d="M73.59,69.71a4.91,4.91,0,0,1-2.35-.59,4.61,4.61,0,0,1-1.77-1.71,5,5,0,0,1-.67-2.67,7,7,0,0,1,.47-2.6,6.2,6.2,0,0,1,1.33-2,6,6,0,0,1,2-1.35,5.82,5.82,0,0,1,2.4-.49,5.06,5.06,0,0,1,2.26.46,3.29,3.29,0,0,1,1.47,1.39,4.83,4.83,0,0,1,.53,2.37,10.2,10.2,0,0,1-.37,2.83,6.89,6.89,0,0,1-1.09,2.3A5.34,5.34,0,0,1,76,69.15,5,5,0,0,1,73.59,69.71Zm1-2.67a3.07,3.07,0,0,0,1.68-.46,3.13,3.13,0,0,0,1.16-1.28,4.18,4.18,0,0,0,.42-1.92,2.46,2.46,0,0,0-.66-1.79,2.51,2.51,0,0,0-1.88-.67,3,3,0,0,0-1.66.46,3.32,3.32,0,0,0-1.17,1.29,4,4,0,0,0-.44,1.91,2.4,2.4,0,0,0,.68,1.8A2.54,2.54,0,0,0,74.61,67Zm2.19,2.5.45-2.21L78,64l.43-3.31,1.3-6.51h3.25L79.88,69.54Z" transform="translate(-1.32)"/><path class="cls-1" d="M84.32,69.71A1.87,1.87,0,0,1,83,69.18a1.79,1.79,0,0,1-.54-1.34,2.08,2.08,0,0,1,.63-1.57,2.13,2.13,0,0,1,1.52-.6,1.83,1.83,0,0,1,1.35.53,1.8,1.8,0,0,1,.53,1.36,2.09,2.09,0,0,1-.3,1.12,2.15,2.15,0,0,1-.77.76A2.12,2.12,0,0,1,84.32,69.71Z" transform="translate(-1.32)"/><path class="cls-1" d="M87.46,73.55l3-15.13h3.08l-.45,2.21-.71,3.31L92,67.25l-1.26,6.3Zm7.92-3.84A5.08,5.08,0,0,1,93,69.19a3.29,3.29,0,0,1-1.5-1.6,5.6,5.6,0,0,1-.35-2.8A9.37,9.37,0,0,1,92,61.32a5.51,5.51,0,0,1,1.9-2.26,5.25,5.25,0,0,1,5.22-.22,4.45,4.45,0,0,1,1.76,1.71,5.12,5.12,0,0,1,.66,2.66,7.07,7.07,0,0,1-.47,2.6,6.38,6.38,0,0,1-1.32,2.06,6,6,0,0,1-2,1.35A6.07,6.07,0,0,1,95.38,69.71ZM95,67a3,3,0,0,0,1.66-.46,3.13,3.13,0,0,0,1.16-1.28,4.18,4.18,0,0,0,.43-1.92,2.43,2.43,0,0,0-.68-1.79,2.5,2.5,0,0,0-1.87-.67,3.09,3.09,0,0,0-1.67.46,3.16,3.16,0,0,0-1.16,1.29,4.23,4.23,0,0,0-.41,1.91,2.43,2.43,0,0,0,.66,1.8A2.55,2.55,0,0,0,95,67Z" transform="translate(-1.32)"/><path class="cls-1" d="M107.56,69.71a5,5,0,0,1-2.36-.59,4.61,4.61,0,0,1-1.77-1.71,5.14,5.14,0,0,1-.67-2.67,6.8,6.8,0,0,1,.48-2.6,6.18,6.18,0,0,1,1.32-2,6.07,6.07,0,0,1,2-1.35,5.81,5.81,0,0,1,2.39-.49,4.94,4.94,0,0,1,2.37.52,3.3,3.3,0,0,1,1.48,1.6,5.82,5.82,0,0,1,.37,2.8,9.12,9.12,0,0,1-.83,3.45,5.64,5.64,0,0,1-1.89,2.28A5,5,0,0,1,107.56,69.71Zm1-2.67a3.07,3.07,0,0,0,2.84-1.74,4.06,4.06,0,0,0,.43-1.92,2.46,2.46,0,0,0-.66-1.79,2.52,2.52,0,0,0-1.89-.67,3,3,0,0,0-1.66.46,3.32,3.32,0,0,0-1.17,1.29,4,4,0,0,0-.43,1.91,2.4,2.4,0,0,0,.67,1.8A2.56,2.56,0,0,0,108.57,67Zm2.21,2.5.44-2.21.72-3.31.44-3.31.45-2.29H116l-2.19,11.12Z" transform="translate(-1.32)"/><path class="cls-1" d="M121.57,73.72a11,11,0,0,1-3-.38,6.87,6.87,0,0,1-2.33-1.09l1.53-2.34a5.32,5.32,0,0,0,1.7.88,6.88,6.88,0,0,0,2.19.34,3.75,3.75,0,0,0,2.53-.73,3.8,3.8,0,0,0,1.13-2.16l.39-2,.74-2.6.5-2.83.48-2.38h3.06l-1.84,9.26a7.49,7.49,0,0,1-2.44,4.62A7.37,7.37,0,0,1,121.57,73.72ZM122,69a5.3,5.3,0,0,1-2.46-.56,4.3,4.3,0,0,1-1.78-1.6,4.58,4.58,0,0,1-.66-2.51,6,6,0,0,1,.46-2.37A6.28,6.28,0,0,1,118.9,60a6,6,0,0,1,2-1.31,6.43,6.43,0,0,1,2.47-.47,5.14,5.14,0,0,1,2.21.46,3.18,3.18,0,0,1,1.54,1.47,4.85,4.85,0,0,1,.41,2.72,8.61,8.61,0,0,1-.81,3.21,5.28,5.28,0,0,1-1.85,2.13A5,5,0,0,1,122,69Zm.87-2.64a3.33,3.33,0,0,0,1.68-.42,3,3,0,0,0,1.16-1.15,3.43,3.43,0,0,0,.42-1.7,2,2,0,0,0-.67-1.58,2.72,2.72,0,0,0-1.85-.59,3.32,3.32,0,0,0-1.68.41,3.07,3.07,0,0,0-1.14,1.15,3.33,3.33,0,0,0-.42,1.68,2,2,0,0,0,.67,1.61A2.68,2.68,0,0,0,122.9,66.36Z" transform="translate(-1.32)"/><path class="cls-1" d="M137.2,69.71a6.68,6.68,0,0,1-3-.63,4.68,4.68,0,0,1-2-1.73,4.83,4.83,0,0,1-.7-2.63,6.59,6.59,0,0,1,.83-3.31,6.13,6.13,0,0,1,2.32-2.31,6.78,6.78,0,0,1,3.4-.85,6.17,6.17,0,0,1,2.82.61,4.48,4.48,0,0,1,1.84,1.71,4.9,4.9,0,0,1,.65,2.58,6.36,6.36,0,0,1-.06.87c0,.29-.09.57-.14.83H134l.35-1.88h7.34l-1.35.57a2.5,2.5,0,0,0-.09-1.56,2.05,2.05,0,0,0-.87-1,2.88,2.88,0,0,0-1.43-.34,3,3,0,0,0-1.79.51A3.22,3.22,0,0,0,135,62.57a5.21,5.21,0,0,0-.38,2,2.41,2.41,0,0,0,.71,1.89,3.22,3.22,0,0,0,2.18.63,5,5,0,0,0,1.64-.27,4,4,0,0,0,1.34-.74l1.34,2.11a6.36,6.36,0,0,1-2.18,1.12A8.59,8.59,0,0,1,137.2,69.71Z" transform="translate(-1.32)"/></g><g id="Calque_2-2" data-name="Calque 2"><polygon class="cls-3" points="92.41 18.43 96.02 16.53 96.66 17.96 92.41 18.43"/><polygon class="cls-3" points="86.03 15.27 85.64 11.21 87.21 11.16 86.03 15.27"/><polygon class="cls-3" points="89.23 16.5 91.27 12.96 92.57 13.83 89.23 16.5"/><path class="cls-4" d="M109.21,41.1A13.11,13.11,0,0,0,110.62,32a13.39,13.39,0,0,0-4.24-7.15,4.34,4.34,0,0,0,.29-1.49,12.19,12.19,0,0,0-.12-4.18A13.33,13.33,0,0,0,104.07,14,17.4,17.4,0,0,0,87.9,7.54C84.37,1.81,77-.83,70.25.23a17.37,17.37,0,0,0-7,2.73,18.39,18.39,0,0,0-6.1-.06c-5.52.88-10.43,4.15-12.45,8.94-.58.06-1.16.12-1.73.21-7.48,1.22-12.62,6.7-13.19,12.8a12.19,12.19,0,0,0,.12,3.24,12.35,12.35,0,0,0,1.16,3.49s0,0,0,.06,0,0,0,.06,0,.06-.06.06a8.69,8.69,0,0,0-.87.57l-.25.19-.1.09a1.06,1.06,0,0,0-.22.18l-.39.33A10.49,10.49,0,0,0,27,36.21a.25.25,0,0,0-.06.13s0,0,0,.06,0,.09-.07.12a10.46,10.46,0,0,0,2.54,12.25l81.93.48A12.4,12.4,0,0,0,109.21,41.1ZM62.22,33h-.16v0h.16Z" transform="translate(-1.32)"/><ellipse class="cls-5" cx="84.02" cy="25.1" rx="0.67" ry="0.75"/></g><g id="Calque_6" data-name="Calque 6"><polygon class="cls-6" points="76.92 32.55 76.92 32.8 76.71 32.8 76.92 32.55"/><path class="cls-6" d="M84,26.47,47.62,23.53l-1.46,1.15,0,.07.31.57-.35.35-.65.67-2,.06-2,1.47.11.09,1.18.87-1,.92-.24.22-2.17-.25S37.6,31,37.42,31.06l-.23,3.5,14.33,1.6L51.65,49h4.22L56,36.65l.26,0,7.77.87.12,11.49h4.31l.14-11,.26,0,4.91.55,2.69-2.88V33.85l2.36.06h.1l.21-.26L80.44,32v-.58l2,.07V30.24l0,1.33,1.64-2ZM51.72,32.33l.21.18-.21,0Zm4.57.6-.29,0,.29-.45ZM64,34.11h.16v0H64Zm10.06-2.86.1-.1.22.11ZM79.15,30l-.12.11V30l.09-.07h0Z" transform="translate(-1.32)"/><polygon class="cls-6" points="84.31 32.98 83.12 33.16 83.03 33.19 83.62 31.57 83.87 32.09 84.31 32.98"/><polygon class="cls-6" points="89.16 32.01 88.85 32.09 88.78 32.1 89.13 31.32 89.16 32.01"/><polygon class="cls-6" points="95.59 43.85 95.59 43.87 95.4 43.73 95.41 43.73 95.59 43.85"/><path class="cls-7" d="M35.11,9.64h0Z" transform="translate(-1.32)"/><polygon class="cls-6" points="95.59 43.85 95.59 43.87 95.4 43.73 95.41 43.73 95.59 43.85"/><path class="cls-6" d="M104.62,38.79C98.5,34.71,93.4,31.25,93.4,31.25l-1.79.19,0,.69-.31.08-.07,0-1,.23-1.81-1-2.4.19.25.52.44.89-1.19.19-.09,0-.37.06L83.37,32.1s-1.93.19-2.21.14l0,0-1.79,2.7L97.19,47.61l0-.1,7.18-6.31.24-2.41Zm-7.83,5.08-.19-.13h0l.18.13Z" transform="translate(-1.32)"/><polygon class="cls-6" points="95.59 43.85 95.59 43.87 95.4 43.73 95.41 43.73 95.59 43.85"/><polygon class="cls-6" points="76.71 32.8 76.6 32.92 76.61 32.8 76.71 32.8"/><path class="cls-6" d="M88.19,20.55l-.7-2.17L82.88,16.1l-1.37.23-1.23-.41-3.39.7h0v0l0,1.74,1.25,1.11-.06,1.25,1.06,1.07v0l1.1-.45L82.07,23l-.14,1.23,1.13,1.2h0l1.14-.47v-.07l1.59,1.41h0l1.45-.59.37-.15,3.16-1.31L91,22.66Zm-4.68,1.58h0Zm2.67,1.81a7.56,7.56,0,0,0,1.26,1.42c.08.13.1-1.87.24-1.82C87.64,23.57,86.23,24,86.18,23.94Z" transform="translate(-1.32)"/><polygon class="cls-8" points="71.94 28.78 67.42 32.7 75.43 32.92 75.8 29.3 71.94 28.78"/><polygon class="cls-8" points="38.24 27.43 38.41 29.71 46.77 29.95 43.34 27.49 38.24 27.43"/><polygon class="cls-8" points="42.75 24.5 42.93 26.78 51.28 27.02 47.85 24.56 42.75 24.5"/><polygon class="cls-8" points="75.25 26.58 70.74 30.51 79.09 30.74 79.12 27.11 75.25 26.58"/><polygon class="cls-9" points="65.55 32.94 65.36 49.13 63.26 49.14 63.09 36.1 65.55 32.94"/><polygon class="cls-10" points="63.26 33.05 63.26 49.13 61.05 49.13 60.86 31.3 63.26 33.05"/><polygon class="cls-9" points="76.95 19.74 77.14 21.51 76 21.98 75.93 19.49 76.95 19.74"/><polygon class="cls-8" points="76.04 20.04 75.98 21.96 74.92 20.89 75 19.28 76.04 20.04"/><polygon class="cls-9" points="80.82 23.31 81.01 25.08 79.88 25.55 79.81 23.06 80.82 23.31"/><polygon class="cls-8" points="79.97 23.5 79.88 25.54 78.75 24.34 78.93 22.74 79.97 23.5"/><polygon class="cls-10" points="50.78 33.23 50.68 49.06 48.55 49.05 48.38 31.47 50.78 33.23"/><polygon class="cls-9" points="52.95 31.59 52.77 49.07 50.66 49.08 50.49 35.04 52.95 31.59"/><path class="cls-10" d="M35.4,30.3c.18-.06,1.88-1.23,1.88-1.23l2.16.23,1.29-1.05-1.29-.88,2-1.35L43.49,26l1-.93-.35-.59,1.47-1.06L82,26.08l-1.62,1.1-3.47-.28-1,.7,2.46.77-1.53,1.17L73.14,29l-1.46,1.17,2.75,1.23L72,33.64Z" transform="translate(-1.32)"/><polygon class="cls-8" points="34.08 30.3 33.84 33.52 70.41 37.27 70.65 33.64 34.08 30.3"/><polygon class="cls-9" points="82.48 31.69 81.56 34.19 88.71 38.51 86.94 34.68 82.48 31.69"/><polygon class="cls-9" points="87.99 31.44 86.92 33.82 94.08 38.14 92.31 34.31 87.99 31.44"/><path class="cls-10" d="M102.31,38.79l-6.48,5,0,.2L78.84,32.24c.17.06,2.23-.13,2.23-.13l1.76,1.26.47-.08,1.19-.19-.44-.88-.25-.53,2.39-.19,1.82,1,1-.25.3-.09,0-.68,1.79-.2S96.2,34.71,102.31,38.79Z" transform="translate(-1.32)"/><path class="cls-7" d="M107.23,40.41h0Z" transform="translate(-1.32)"/><polygon class="cls-10" points="81.02 17.35 76.33 19.11 73.68 16.78 77.09 16.06 81.02 17.35"/><polygon class="cls-8" points="94.45 43.98 93.57 47.62 75.72 34.92 77.51 32.22 94.45 43.98"/><polygon class="cls-8" points="80.86 19.54 80.29 22.44 75.39 18.25 76.72 16.79 80.86 19.54"/><polygon class="cls-8" points="83.12 24.56 82.6 26.43 73.73 18.53 73.69 16.76 83.12 24.56"/><polygon class="cls-9" points="73.11 31.41 73.11 34.64 70.41 37.27 70.65 33.64 73.11 31.41"/><polygon class="cls-9" points="101 38.8 100.77 41.2 93.56 47.53 94.26 43.84 101 38.8"/><polygon class="cls-9" points="77.03 28.37 77.09 31.18 75.42 32.95 75.51 29.54 77.03 28.37"/><polygon class="cls-9" points="80.67 26.08 80.73 28.89 79.08 30.77 79.03 27.19 80.67 26.08"/><polygon class="cls-9" points="87.58 24.38 82.6 26.44 83.11 24.55 87.81 22.8 87.58 24.38"/><polygon class="cls-9" points="85 20.69 80.32 22.27 80.87 19.51 84.3 18.52 85 20.69"/><polygon class="cls-11" points="84.83 20.54 80.61 21.96 81.17 19.71 84.16 18.78 84.83 20.54"/><polygon class="cls-12" points="80 22.03 77.92 20.24 78.47 18.36 80.43 19.67 80 22.03"/><polygon class="cls-13" points="77.75 20.02 75.71 18.31 76.71 17.13 78.26 18.23 77.75 20.02"/><polygon class="cls-10" points="87.82 22.8 83.13 24.56 80.31 22.27 84.97 20.67 87.82 22.8"/><path class="cls-6" d="M87.18,18.08c0-.14-.19-7.25-.19-7.25l2.32,0Z" transform="translate(-1.32)"/><polygon class="cls-10" points="84.31 18.52 80.87 19.55 76.65 16.74 79.69 16.24 84.31 18.52"/><path class="cls-8" d="M86.83,16.67c0-.11-.8-6.09-.8-6.09l2.32-.15Z" transform="translate(-1.32)"/><path class="cls-6" d="M91.86,19.14c.13-.05,6.25-3.31,6.25-3.31l1.17,2.85Z" transform="translate(-1.32)"/><path class="cls-6" d="M89.59,18.09c.08-.09,3.8-5.52,3.8-5.52L95.23,14Z" transform="translate(-1.32)"/><path class="cls-8" d="M89.25,17.68c.07-.1,2.8-5.47,2.8-5.47l2,1.19Z" transform="translate(-1.32)"/><path class="cls-8" d="M91.76,18.34c.11-.05,5.21-3.27,5.21-3.27l1.1,2Z" transform="translate(-1.32)"/><ellipse class="cls-14" cx="85.15" cy="25.12" rx="0.72" ry="0.33" transform="translate(38.98 101.74) rotate(-76.09)"/><ellipse class="cls-15" cx="88.46" cy="23.81" rx="0.72" ry="0.33" transform="translate(42.77 103.95) rotate(-76.09)"/><polygon class="cls-8" points="51.38 28.12 45.63 27.55 47.68 26.14 53.04 26.59 51.38 28.12"/><polygon class="cls-8" points="59.93 29.14 54.19 28.57 55.72 26.98 61.59 27.61 59.93 29.14"/><polygon class="cls-8" points="69.19 29.98 63.44 29.34 64.97 27.74 70.85 28.38 69.19 29.98"/><polygon class="cls-8" points="93.12 38.98 88.06 35.24 90.17 34.59 95 37.99 93.12 38.98"/><polygon class="cls-9" points="79.56 24.61 79.18 24.2 79.23 23.66 79.62 24 79.56 24.61"/><polygon class="cls-9" points="75.61 21.16 75.23 20.75 75.28 20.21 75.67 20.55 75.61 21.16"/></g></g></svg>